<svg width="73" height="149" viewBox="0 0 73 149" fill="none" xmlns="http://www.w3.org/2000/svg">
<g filter="url(#filter0_b_29_463)">
<path d="M30.8142 14.5013C21.7056 18.4948 13.9484 25.0428 8.47995 33.3536C3.01152 41.6644 0.0662625 51.3821 0.00012207 61.332V66.0049V149.102C0.00012207 149.102 39.7488 135.642 42.1855 134.6C51.2902 130.601 59.044 124.052 64.5116 115.743C69.9793 107.433 72.927 97.718 72.9995 87.7695V85.8902V0C72.9995 0 33.2255 13.46 30.8142 14.5013Z" fill="url(#paint0_linear_29_463)" fill-opacity="0.6"/>
<path d="M30.8142 14.5013C21.7056 18.4948 13.9484 25.0428 8.47995 33.3536C3.01152 41.6644 0.0662625 51.3821 0.00012207 61.332V66.0049V149.102C0.00012207 149.102 39.7488 135.642 42.1855 134.6C51.2902 130.601 59.044 124.052 64.5116 115.743C69.9793 107.433 72.927 97.718 72.9995 87.7695V85.8902V0C72.9995 0 33.2255 13.46 30.8142 14.5013Z" fill="#60AAFB" fill-opacity="0.2"/>
<path d="M71.4462 1.05395L72.4995 0.697181V85.8902V87.768C72.4273 97.6193 69.5082 107.239 64.0939 115.468C58.6797 123.696 51.0019 130.182 41.9863 134.142C40.7777 134.657 30.27 138.269 20.0175 141.768C14.897 143.516 9.85253 145.231 6.08817 146.509C4.206 147.148 2.64387 147.678 1.5523 148.048L0.500122 148.404V66.0049V61.3337C0.565937 51.4809 3.48259 41.8581 8.89764 33.6284C14.3127 25.3987 21.9941 18.9146 31.0136 14.9598C32.2015 14.4475 42.7119 10.8339 52.9725 7.33339C58.0947 5.58592 63.1415 3.87098 66.9078 2.59288C68.791 1.95384 70.354 1.42401 71.4462 1.05395Z" stroke="url(#paint1_linear_29_463)" stroke-opacity="0.6"/>
<path d="M71.4462 1.05395L72.4995 0.697181V85.8902V87.768C72.4273 97.6193 69.5082 107.239 64.0939 115.468C58.6797 123.696 51.0019 130.182 41.9863 134.142C40.7777 134.657 30.27 138.269 20.0175 141.768C14.897 143.516 9.85253 145.231 6.08817 146.509C4.206 147.148 2.64387 147.678 1.5523 148.048L0.500122 148.404V66.0049V61.3337C0.565937 51.4809 3.48259 41.8581 8.89764 33.6284C14.3127 25.3987 21.9941 18.9146 31.0136 14.9598C32.2015 14.4475 42.7119 10.8339 52.9725 7.33339C58.0947 5.58592 63.1415 3.87098 66.9078 2.59288C68.791 1.95384 70.354 1.42401 71.4462 1.05395Z" stroke="url(#paint2_linear_29_463)"/>
</g>
<defs>
<filter id="filter0_b_29_463" x="-25.9999" y="-26" width="124.999" height="201.102" filterUnits="userSpaceOnUse" color-interpolation-filters="sRGB">
<feFlood flood-opacity="0" result="BackgroundImageFix"/>
<feGaussianBlur in="BackgroundImageFix" stdDeviation="13"/>
<feComposite in2="SourceAlpha" operator="in" result="effect1_backgroundBlur_29_463"/>
<feBlend mode="normal" in="SourceGraphic" in2="effect1_backgroundBlur_29_463" result="shape"/>
</filter>
<linearGradient id="paint0_linear_29_463" x1="36.4998" y1="0" x2="116.621" y2="29.133" gradientUnits="userSpaceOnUse">
<stop stop-color="white" stop-opacity="0.2"/>
<stop offset="1" stop-color="white" stop-opacity="0"/>
</linearGradient>
<linearGradient id="paint1_linear_29_463" x1="86.998" y1="59.6059" x2="62.0503" y2="59.9935" gradientUnits="userSpaceOnUse">
<stop stop-color="white"/>
<stop offset="1" stop-color="#EFEFEF" stop-opacity="0"/>
</linearGradient>
<linearGradient id="paint2_linear_29_463" x1="0.00012207" y1="0" x2="35.4844" y2="9.2346" gradientUnits="userSpaceOnUse">
<stop stop-color="white" stop-opacity="0.5"/>
<stop offset="1" stop-color="white" stop-opacity="0"/>
</linearGradient>
</defs>
</svg>
